<svg width="18" height="1071" xmlns="http://www.w3.org/2000/svg"><g fill="#7D9CB8" fill-rule="nonzero"><path d="M3.343 908.657a8 8 0 1111.314-11.314 8 8 0 01-11.314 11.314zm3.536-3.536c1.414 1.415 1.925 2.345 1.925 2.345.314.465.805.475 1.12.03 0 0 1.904-1.668-.924-4.496-2.828-2.828-4.495-.924-4.495-.924-.464.288-.433.817.03 1.12 0 0 .93.511 2.344 1.925zm3.72-1.968c.317.453 1.124.434 1.803-.04.679-.476.972-1.228.655-1.68-.317-.453-1.124-.434-1.802.04-.679.476-.972 1.228-.655 1.68zm.81 2.272c.166.357.735.444 1.27.194.536-.25.835-.742.669-1.099-.167-.357-.736-.444-1.271-.194-.536.25-.835.742-.669 1.099zm-4.857-4.857c.357.167.849-.132 1.099-.668s.162-1.105-.195-1.271c-.357-.167-.849.132-1.098.668-.25.536-.163 1.105.194 1.271zm2.295.832c.452.317 1.204.024 1.68-.655.474-.678.493-1.485.04-1.802-.452-.317-1.204-.024-1.679.655-.475.679-.494 1.486-.041 1.802zm.146-34.4a8 8 0 017.578 5.423 7.987 7.987 0 01-4.995 10.147c-.84.285-1.709.43-2.583.43a7.912 7.912 0 01-3.526-.827 7.94 7.94 0 01-4.038-4.6 7.988 7.988 0 014.995-10.146A7.961 7.961 0 018.993 867zm.774 1.763c-3.264 2.484-3.501 5.309-3.496 6.115l.001.187.177.059a3.76 3.76 0 001.186.208c.334 0 .653-.056.948-.167l.156-.059.012-.166c.084-1.13.61-3.35 3.188-5.518l.309-.26-.364-.174a6.7 6.7 0 00-1.564-.525l-.11-.022-.092.065c-.119.083-.237.17-.351.257zm-6.916 3.653l-.068.16.124.125c.409.408 1.055 1.005 1.813 1.524l.35.241.055-.422c.166-1.287.756-3.218 2.622-5.11l.635-.644-.88.207a6.645 6.645 0 00-4.651 3.918zm-.24 4.487l.09.053c1.868 1.114 3.634 1.68 5.247 1.68.042 0 .083 0 .124-.002 1.383-.024 2.353-.464 2.923-.828l.277-.177-.236-.229a8.191 8.191 0 00-1.57-1.189l-.117-.068-.123.056a3.764 3.764 0 01-1.583.342c-1.966 0-3.886-1.434-4.856-2.288l-.388-.342-.044.515c-.068.8.009 1.6.228 2.377l.029.1zm10.137 3.61l.166-.113-.067-.19a7.236 7.236 0 00-.684-1.416l-.144-.23-.224.154c-.755.516-2.033 1.132-3.844 1.132-1.12 0-2.31-.239-3.537-.71l-1.06-.409.777.83a6.655 6.655 0 001.923 1.423c.929.457 1.917.689 2.94.689a6.674 6.674 0 003.754-1.16zm2.443-3.027l.04-.101-.043-.1c-1.279-2.925-3.218-4.086-4.26-4.518l-.22-.091-.11.21c-.454.866-.6 1.59-.641 2.045l-.015.164.142.084c2.068 1.213 3.12 2.84 3.638 3.991l.173.384.266-.325a6.645 6.645 0 001.03-1.743zm-.007-2.682l.523.75-.05-.913a6.654 6.654 0 00-.342-1.79 6.664 6.664 0 00-1.865-2.818l-.16-.144-.172.131c-.568.436-1.068.9-1.487 1.377l-.227.26.312.147c.936.442 2.297 1.321 3.468 3zm-5.26-23.79L9 850.12l-.924.894c-1.361 1.315-3.567 1.315-4.928 0a3.696 3.696 0 010-5.356l5.157-4.986a1 1 0 011.39 0l5.157 4.986a3.698 3.698 0 010 5.356c-1.36 1.315-3.567 1.315-4.928 0zM7 855l2-4 2 4s-1 .5-2 .5-2-.5-2-.5zm4.818-36.9c1.699-5.76-3.27-8-3.27-8-.34 2.88-2.04 3.48-3.823 5-2.973 2.52-2.719 5-2.719 5-.212 3.84 4.885 5.52 4.885 5.52-2.336-4 1.104-6 1.104-6-.127 5.16 4.205 6.48 4.205 6.48 7.093-3.64 2.081-11.24 2.081-11.24-.17 2.6-2.463 3.24-2.463 3.24zM3.47 765a.5.5 0 01-.5-.469l-.412-6.607a.35.35 0 01.597-.27L6.5 761l2.187-4.374a.35.35 0 01.626 0L11.5 761l3.345-3.345a.35.35 0 01.597.269l-.413 6.607a.5.5 0 01-.499.469H3.47zm.171 1h10.718c.223 0 .304.023.385.067a.454.454 0 01.19.189c.043.081.066.162.066.385v.718c0 .223-.023.304-.067.385a.454.454 0 01-.189.19c-.081.043-.162.066-.385.066H3.641c-.223 0-.304-.023-.385-.067a.454.454 0 01-.19-.189c-.043-.081-.066-.162-.066-.385v-.718c0-.223.023-.304.067-.385a.454.454 0 01.189-.19c.081-.043.162-.066.385-.066zm13.03 24.958l.048.114c.53.602.784 1.372.781 2.14-.004.851-.32 1.703-.983 2.323v1.76a.7.7 0 01-.69.705h-1.615a.699.699 0 01-.69-.705V796H4.478v1.295c0 .388-.31.705-.69.705H2.172a.699.699 0 01-.69-.705s-.014-1.806-.021-1.812c-.624-.587-.965-1.417-.962-2.335a3.217 3.217 0 01.746-2.075l.052-.117C.468 790.89 0 790.49 0 789.983c0-.543.625-.983 1.395-.983.204 0 .447.05.694.146l.13-.297c.434-1.162.994-2.303 1.635-2.734 2.212-1.487 8.08-1.487 10.293 0 .64.43 1.202 1.57 1.634 2.734l.126.298c.249-.096.493-.147.698-.147.77 0 1.395.44 1.395.983 0 .514-.48.918-1.329.975zm-12.034-3.48c-.345.253-.789 1.273-1.194 2.522h11.23c-.408-1.25-.852-2.27-1.197-2.522-1.775-1.304-7.062-1.304-8.839 0zM3.595 792c-.77 0-1.395.44-1.395.983 0 .543.534.962 1.473.981.545.01 2.017.114 2.027-.084.008-1.155-1.333-1.88-2.105-1.88zm10.81 0c-.772 0-2.113.725-2.105 1.88.01.198 1.482.094 2.027.084.939-.019 1.473-.438 1.473-.981 0-.543-.625-.983-1.395-.983zM2.96 700H7.04c.334 0 .455.035.577.1a.681.681 0 01.284.284c.065.122.1.243.1.577v4.078c0 .334-.035.455-.1.577a.681.681 0 01-.284.284c-.122.065-.243.1-.577.1H2.96c-.334 0-.455-.035-.577-.1a.681.681 0 01-.284-.284c-.065-.122-.1-.243-.1-.577v-4.078c0-.334.035-.455.1-.577a.681.681 0 01.284-.284c.122-.065.243-.1.577-.1zm0 8H7.04c.334 0 .455.035.577.1a.681.681 0 01.284.284c.065.122.1.243.1.577v4.078c0 .334-.035.455-.1.577a.681.681 0 01-.284.284c-.122.065-.243.1-.577.1H2.96c-.334 0-.455-.035-.577-.1a.681.681 0 01-.284-.284c-.065-.122-.1-.243-.1-.577v-4.078c0-.334.035-.455.1-.577a.681.681 0 01.284-.284c.122-.065.243-.1.577-.1zm8 0h4.078c.334 0 .455.035.577.1a.681.681 0 01.284.284c.065.122.1.243.1.577v4.078c0 .334-.035.455-.1.577a.681.681 0 01-.284.284c-.122.065-.243.1-.577.1H10.96c-.334 0-.455-.035-.577-.1a.681.681 0 01-.284-.284c-.065-.122-.1-.243-.1-.577v-4.078c0-.334.035-.455.1-.577a.681.681 0 01.284-.284c.122-.065.243-.1.577-.1zm2.719-8.563l2.883 2.883c.236.237.297.347.338.48.04.132.04.268 0 .4-.04.133-.102.243-.338.48l-2.883 2.883c-.237.236-.347.297-.48.338a.681.681 0 01-.4 0c-.133-.04-.243-.102-.48-.338l-2.883-2.883c-.236-.237-.297-.347-.338-.48a.681.681 0 010-.4c.04-.133.102-.243.338-.48l2.883-2.883c.237-.236.347-.297.48-.338a.681.681 0 01.4 0c.133.04.243.102.48.338zM8 741.93A7.005 7.005 0 012.07 736H1a1 1 0 110-2h1.07A7.005 7.005 0 018 728.07V727a1 1 0 112 0v1.07a7.005 7.005 0 015.93 5.93H17a1 1 0 110 2h-1.07a7.005 7.005 0 01-5.93 5.93V743a1 1 0 11-2 0v-1.07zM9 740a5 5 0 100-10 5 5 0 000 10zm0-3a2 2 0 110-4 2 2 0 010 4zm1.714-61.111c0 1.98 2.046 3.028 3.799 7C15.07 684.153 16.504 686 9 686s-6.07-1.847-5.513-3.111c1.753-3.972 3.799-5.02 3.799-7v-2.333h-.429c-.236 0-.428-.175-.428-.39v-.777c0-.215.192-.389.428-.389h4.286c.236 0 .428.174.428.389v.778c0 .214-.192.389-.428.389h-.429v2.333zm1.736 8.07c.178-.05.248-.237.185-.41a9.546 9.546 0 00-1.011-2.028c-.456-.692-.134.323-1.307.323s-2.582-2.377-3.94-.323a9.461 9.461 0 00-1.012 2.029c-.063.172.007.36.185.408.503.137 1.504.292 3.45.292 1.946 0 2.947-.155 3.45-.292zm2.315-58.538c-.722 1.162-3.03 2.013-5.765 2.013s-5.043-.851-5.766-2.013c-.153-.247-.234-.115-.234.006v1.707c0 1.653 2.686 3.366 6 3.366s6-1.713 6-3.366v-1.706c0-.122-.082-.254-.235-.007zm.01-4.36c-.712 1.027-3.028 1.781-5.775 1.781-2.747 0-5.064-.754-5.775-1.78-.147-.212-.225-.097-.225-.003v2.01c0 1.5 2.686 2.717 6 2.717s6-1.217 6-2.718v-2.009c0-.094-.079-.21-.225.002zM9 615.5c-3.314 0-6 1.006-6 2.244v1.074c0 1.313 2.686 2.379 6 2.379s6-1.066 6-2.38v-1.073c0-1.238-2.686-2.244-6-2.244z"/><path d="M14.765 624.921c-.722 1.162-3.03 2.013-5.765 2.013s-5.043-.851-5.766-2.013c-.153-.247-.234-.115-.234.006v1.707C3 628.287 5.686 630 9 630s6-1.713 6-3.366v-1.706c0-.122-.082-.254-.235-.007zm.01-4.36c-.712 1.027-3.028 1.781-5.775 1.781-2.747 0-5.064-.754-5.775-1.78-.147-.212-.225-.097-.225-.003v2.01c0 1.5 2.686 2.717 6 2.717s6-1.217 6-2.718v-2.009c0-.094-.079-.21-.225.002zM9 615c-3.314 0-6 1.006-6 2.244v1.074c0 1.313 2.686 2.379 6 2.379s6-1.066 6-2.38v-1.073c0-1.238-2.686-2.244-6-2.244zm3.937 39.002c.108.531.206.766.467.992L5.03 655c.052-1.109 3.149-3 3.149-5.5-.525.5-2.763 1.286-3.149 1.5-.068.04-1.372-.706-1.574-1-.446-.65-.466-.746-.453-.875.025-.255.32-.379.48-.466.009-.004.856-.466 1.6-1.451.315-.757.565-1.397 1.832-2.024.488-.24.951-.424 1.286-.545-.049-.21-.287-1.143-.547-1.639 0 0 .881.136 1.573.535.556.32.934.91 1.05.965.318.153.802.011 2.1 1 2.623 2 1.134 4.978 1.123 5l-.563 3.502zM3.641 655h10.718c.223 0 .304.023.385.067a.454.454 0 01.19.189c.043.081.066.162.066.385v1.718c0 .223-.023.304-.067.385a.454.454 0 01-.189.19c-.081.043-.162.066-.385.066H3.641c-.223 0-.304-.023-.385-.067a.454.454 0 01-.19-.189c-.043-.081-.066-.162-.066-.385v-1.718c0-.223.023-.304.067-.385a.454.454 0 01.189-.19c.081-.043.162-.066.385-.066zm11.197-56.92C14.461 599.548 13.201 602 9 602c-4.2 0-5.46-2.451-5.838-3.92l-1.024.089 1.731-3.163 2.254 2.814-.93.081c.287.757 1.008 1.757 2.807 2.028v-6.1a3.001 3.001 0 112 0v6.1c1.8-.271 2.52-1.271 2.808-2.028l-.931-.081 2.254-2.814 1.73 3.163-1.023-.09zM9 592a1 1 0 100-2 1 1 0 000 2zm-7.747-30.196a.995.995 0 01.905-1.078l8.974-.785a.995.995 0 011.079.905l.785 8.974a.995.995 0 01-.905 1.079l-8.974.785a.995.995 0 01-1.079-.905l-.785-8.975zM4 564a1 1 0 100-2 1 1 0 000 2zm3 3a1 1 0 100-2 1 1 0 000 2zm3 2a1 1 0 100-2 1 1 0 000 2zm3.927-4.18l2.198.192c.548.048.953.53.905 1.079l-.785 8.974a.995.995 0 01-1.079.905l-8.974-.785a.995.995 0 01-.905-1.079l.086-.988 8.218-.72a.995.995 0 00.905-1.078l-.569-6.5zM1 542.515c0-.27.215-.49.49-.49h3.02c.27 0 .49.215.49.49v3.02c0 .27-.215.49-.49.49H1.49a.488.488 0 01-.49-.49v-3.02zm5 0c0-.27.215-.49.49-.49h3.02c.27 0 .49.215.49.49v3.02c0 .27-.215.49-.49.49H6.49a.488.488 0 01-.49-.49v-3.02zm5 0c0-.27.215-.49.49-.49h3.02c.27 0 .49.215.49.49v3.02c0 .27-.215.49-.49.49h-3.02a.488.488 0 01-.49-.49v-3.02zm-5-5c0-.27.215-.49.49-.49h3.02c.27 0 .49.215.49.49v3.02c0 .27-.215.49-.49.49H6.49a.488.488 0 01-.49-.49v-3.02zm5.547-4.142a.488.488 0 010-.693l2.135-2.135a.488.488 0 01.693 0l2.135 2.135a.488.488 0 010 .693l-2.135 2.135a.488.488 0 01-.693 0l-2.135-2.135zM1 537.515c0-.27.215-.49.49-.49h3.02c.27 0 .49.215.49.49v3.02c0 .27-.215.49-.49.49H1.49a.488.488 0 01-.49-.49v-3.02zm0-5c0-.27.215-.49.49-.49h3.02c.27 0 .49.215.49.49v3.02c0 .27-.215.49-.49.49H1.49a.488.488 0 01-.49-.49v-3.02zm5.045.708a.488.488 0 01.18-.67l2.614-1.51a.488.488 0 01.67.18l1.51 2.614a.488.488 0 01-.18.67l-2.614 1.51a.488.488 0 01-.67-.18l-1.51-2.614zm6.41 2.9a.488.488 0 01.67-.18l2.614 1.51a.488.488 0 01.18.67l-1.51 2.614a.488.488 0 01-.67.18l-2.614-1.51a.488.488 0 01-.18-.67l1.51-2.614zM5 392v4l1.5-2 1.5 2v-4h5.504A1.5 1.5 0 0115 393.5V404H4.5c-.271 0-.5.224-.5.5 0 .269.224.5.5.5H15v.502a.503.503 0 01-.5.498H4.496A1.5 1.5 0 013 404.502V393.5c0-.828.68-1.499 1.496-1.499H5zm3.961 28h1.078c.334 0 .455.035.577.1a.681.681 0 01.284.284c.065.122.1.243.1.577v11.078c0 .334-.035.455-.1.577a.681.681 0 01-.284.284c-.122.065-.243.1-.577.1H8.96c-.334 0-.455-.035-.577-.1a.681.681 0 01-.284-.284c-.065-.122-.1-.243-.1-.577V420.96c0-.334.035-.455.1-.577a.681.681 0 01.284-.284c.122-.065.243-.1.577-.1zm-5 6.984H5.04c.334 0 .455.035.577.1a.681.681 0 01.284.284c.065.122.1.243.1.578v4.077c0 .334-.035.455-.1.578a.681.681 0 01-.284.283c-.122.066-.243.1-.577.1H3.96c-.334 0-.455-.034-.577-.1a.681.681 0 01-.284-.283c-.065-.123-.1-.244-.1-.578v-4.077c0-.335.035-.456.1-.578a.681.681 0 01.284-.283c.122-.066.243-.1.577-.1zm10-3.984h1.078c.334 0 .455.035.577.1a.681.681 0 01.284.284c.065.122.1.243.1.577v8.078c0 .334-.035.455-.1.577a.681.681 0 01-.284.284c-.122.065-.243.1-.577.1H13.96c-.334 0-.455-.035-.577-.1a.681.681 0 01-.284-.284c-.065-.122-.1-.243-.1-.577v-8.078c0-.334.035-.455.1-.577a.681.681 0 01.284-.284c.122-.065.243-.1.577-.1zm-3.119 90.044c.412 3.515-.274 3.259-4.037 4.862-.72.307-.966-.19-.764-.736l.646-1.75-2.109-2.106s-1.203.445-1.748.645c-.546.202-1.043-.045-.736-.763 1.604-3.764 1.348-4.45 4.863-4.038 0 0 4.051-5.746 8.688-5.109.103.014.17.048.214.092a.365.365 0 01.092.213c.637 4.638-5.109 8.69-5.109 8.69zm.821-4.706a1.248 1.248 0 101.761-1.764 1.248 1.248 0 00-1.76 1.764zM8 455v1h3v-1h5v5.01c0 .546-.447.99-.999.99H4a1 1 0 01-.999-.99V455h5zm-6-3.99c0-.558.449-1.01 1.007-1.01h12.986c.556 0 1.007.443 1.007 1.01V454H2v-2.99zM7 450H5.5l1-2h6l1 2H12l-.5-1h-4l-.5 1zm2.613-142.276l1.558 4.387h3.889a.65.65 0 01.391 1.169l-3.207 2.42 1.202 4.452a.65.65 0 01-1.022.686L9 318.223l-3.423 2.615a.65.65 0 01-1.022-.685l1.201-4.453-3.207-2.42a.65.65 0 01.391-1.17h3.89l1.557-4.386a.65.65 0 011.226 0zM4.5 258c.8 0 1.5.7 1.5 1.5s-.7 1.5-1.5 1.5-1.5-.7-1.5-1.5.7-1.5 1.5-1.5zm5 0c.8 0 1.5.7 1.5 1.5s-.7 1.5-1.5 1.5-1.5-.7-1.5-1.5.7-1.5 1.5-1.5zm5 0c.8 0 1.5.7 1.5 1.5s-.7 1.5-1.5 1.5-1.5-.7-1.5-1.5.7-1.5 1.5-1.5zm.46 88.48L12 345v-6l2.96-1.48v-.01c0-.282.22-.51.495-.51h.05c.273 0 .495.228.495.51v8.98c0 .282-.22.51-.496.51h-.049a.503.503 0 01-.495-.51v-.01zM8.166 345l.6 3.779a.949.949 0 01-.807 1.088.997.997 0 01-1.12-.821L6.157 345h-1.16a3 3 0 010-6H11v6H8.166zM10 284.502V280l5 5h-4.502a.493.493 0 01-.498-.498zM4.282 280H9v4.718c0 .446.046.607.134.77.087.163.215.291.378.378.163.088.324.134.77.134H15v6.718c0 .446-.046.607-.134.77a.909.909 0 01-.378.378c-.163.088-.324.134-.77.134H4.282c-.446 0-.607-.046-.77-.134a.909.909 0 01-.378-.378c-.088-.163-.134-.324-.134-.77v-11.436c0-.446.046-.607.134-.77a.909.909 0 01.378-.378c.163-.088.324-.134.77-.134zm11.215-137.924c.853 0 1.6.764 1.493 1.638v7.647c0 .874-.746 1.639-1.6 1.639H2.6C1.746 153 1 152.235 1 151.361v-7.428c0-.874.746-1.857 1.599-1.857h1.386c.32 0 .533-.219.64-.437l.532-1.202c.107-.219.427-.437.64-.437h6.502c.32 0 .533.218.64.437l.533 1.202c.107.218.426.437.64.437h1.385zM9 151c2.171 0 4-1.829 4-4 0-2.171-1.829-4-4-4-2.171 0-4 1.829-4 4 0 2.171 1.829 4 4 4zm0-6.5c1.413 0 2.5 1.087 2.5 2.5s-1.087 2.5-2.5 2.5-2.5-1.087-2.5-2.5 1.087-2.5 2.5-2.5zm4 32.322V171l-6 2v7.5l-.077-.021c.131.917-.602 1.92-1.773 2.347-1.298.472-2.64.056-3-.93-.358-.987.403-2.169 1.7-2.641a3.14 3.14 0 011.158-.193.747.747 0 01-.002-.062v-9.044L15 167v11.5c0 .012-.03.007-.082-.01-.029.813-.675 1.66-1.676 2.085-1.27.54-2.633.194-3.043-.772-.41-.966.288-2.187 1.559-2.726a3.116 3.116 0 011.242-.255zM12 210H6v-2H4v2h-.993C2.45 210 2 209.55 2 208.993v-11.986c0-.556.45-1.007 1.007-1.007H4v2h2v-2h6v2h2v-2h.993c.556 0 1.007.45 1.007 1.007v11.986c0 .556-.45 1.007-1.007 1.007H14v-2h-2v2zm-6-8v-2H4v2h2zm8 0v-2h-2v2h2zm-8 4v-2H4v2h2zm8 0v-2h-2v2h2zm2.77 26.254c.1.404.996 4.54-1.593 4.742-1.095.1-2.29-1.614-3.186-2.522-.797-1.009-1.693-1.513-3.087-1.513-1.393 0-2.19.504-3.086 1.513-.896.908-2.091 2.623-3.087 2.522-2.489-.101-1.593-4.338-1.493-4.742.398-2.219 1.792-6.254 4.58-6.254 0 0 .896.1 1.593.504 1.195.505 1.792.505 3.086 0a5.48 5.48 0 011.594-.504c2.887 0 4.181 3.934 4.68 6.254zM11 230.5c0 .268.224.5.5.5.268 0 .5-.224.5-.5 0-.268-.224-.5-.5-.5-.268 0-.5.224-.5.5zm2 0c0 .268.224.5.5.5.268 0 .5-.224.5-.5 0-.268-.224-.5-.5-.5-.268 0-.5.224-.5.5zm-7-.5v-.5a.5.5 0 00-1 0v.5h-.5a.5.5 0 000 1H5v.5a.5.5 0 001 0v-.5h.5a.5.5 0 000-1H6zM9 92c5.4 0 6 2.7 6 4.1 0 .7-.24.9-1.68.9H4.8c-1.44 0-1.8-.2-1.8-.9 0-1.5.6-4.1 6-4.1zm0-1c-1.657 0-3-1.167-3-3.5S7.343 84 9 84s3 1.167 3 3.5S10.657 91 9 91zm-8 32.1c0-1.5 0-4.1 5-4.1s5 2.7 5 4.1c0 .7-.2.9-1.4.9H2.5c-1.2 0-1.5-.2-1.5-.9zm11.589.9c.007-.087.011-.181.011-.282 0-1.366-.036-3.335-1.474-4.689.273-.019.564-.029.874-.029 4.5 0 5 2.7 5 4.1 0 .7-.2.9-1.4.9h-3.011zM6 118c-1.105 0-2-.833-2-2.5s.895-2.5 2-2.5 2 .833 2 2.5-.895 2.5-2 2.5zm6 0c-1.105 0-2-.833-2-2.5s.895-2.5 2-2.5 2 .833 2 2.5-.895 2.5-2 2.5zm1.228-87.644C15.438 31.093 17 32.895 17 35c0 1.786-1.123 3.353-2.813 4.237.086.485.388 1.133.826 1.78-1.583 0-2.426-.42-2.89-1.105a7.205 7.205 0 01-2.06.027C12.657 38.941 14.5 36.705 14.5 34c0-1.368-.471-2.615-1.272-3.644zm-7.352 8.556C5.413 39.586 4.568 40 2.98 40c.446-.643.752-1.288.83-1.764C2.123 37.35 1 35.785 1 34c0-2.761 2.686-5 6-5s6 2.239 6 5-2.686 5-6 5c-.384 0-.76-.03-1.124-.088zM9 70c-1.1 0-2-.9-2-2h4c0 1.1-.9 2-2 2zm4.846-6s1.163.8 1.702 1.6c.958 1.3.312 1.4-1.174 1.4H3.63c-1.496 0-2.137-.1-1.176-1.4.535-.8 1.699-1.6 1.699-1.6v-3c0-2.6 1.186-4.5 3.661-5 0 0 0-1 1.185-1s1.185 1 1.185 1c2.206.5 3.661 2.4 3.661 5v3zM9.65.298C9.248-.1 8.646-.1 8.345.298l-7.131 6.95c-.402.397-.201.695.301.695L3 8v5c0 1 0 1 1 1h2.505A.498.498 0 007 13.509V9.998C7 8.894 7.888 8 9 8c1.105 0 2 .898 2 1.998v3.511a.49.49 0 00.495.491H14c1 0 1 0 1-1V8l1.58-.057c.402-.099.603-.397.201-.695L9.651.298zM5.002 937h-3.01a.997.997 0 01-.992-.995V927h2v6.497c0 .27.223.503.499.503H4v-9.993A1.01 1.01 0 015.002 923h9.996c.553 0 1.002.45 1.002 1.007v11.495c0 .827-.68 1.498-1.496 1.498H5.002zM7 926.49v3.02c0 .275.22.49.491.49h5.018c.263 0 .491-.22.491-.49v-3.02c0-.275-.22-.49-.491-.49H7.491a.496.496 0 00-.491.49zm0 5.01c0 .268.22.5.491.5h5.018a.5.5 0 000-1H7.491a.5.5 0 00-.491.5zm0 2c0 .268.22.5.49.5h3.02c.275 0 .49-.224.49-.5a.5.5 0 00-.49-.5H7.49a.492.492 0 00-.49.5zM5 953a4 4 0 118 0h.718c.446 0 .607.046.77.134.163.087.291.215.378.378.088.163.134.324.134.77v8.436c0 .446-.046.607-.134.77a.909.909 0 01-.378.378c-.163.088-.324.134-.77.134H4.282c-.446 0-.607-.046-.77-.134a.909.909 0 01-.378-.378c-.088-.163-.134-.324-.134-.77v-8.436c0-.446.046-.607.134-.77a.909.909 0 01.378-.378c.163-.088.324-.134.77-.134H5zm1.25 0h5.5a2.75 2.75 0 00-5.5 0zm1.664 20.636c.33-.09.692-.136 1.086-.136.394 0 .756.045 1.086.136l.814-1.086a.75.75 0 111.2.9l-.707.943c.573.583.942 1.452 1.107 2.607h-7c.165-1.155.534-2.024 1.107-2.607l-.707-.943a.75.75 0 111.2-.9l.814 1.086zm-3.602 5.337c.048-.336.11-.662.188-.973h9c.078.31.14.637.188.973l.535-.357a.25.25 0 00.108-.167l.43-2.572a.75.75 0 111.479.246l-.429 2.573c-.08.477-.353.9-.755 1.168l-1.256.838a13.205 13.205 0 01-.273 2.594l1.682 1.402c.307.256.517.609.596 1l.43 2.155a.75.75 0 11-1.47.294l-.431-2.154a.25.25 0 00-.085-.143l-1.17-.974C12.32 986.939 10.96 988.5 9 988.5c-1.96 0-3.32-1.561-4.08-3.624l-1.169.974a.25.25 0 00-.085.143l-.43 2.154a.75.75 0 11-1.471-.294l.43-2.154a1.75 1.75 0 01.596-1.001l1.682-1.402a13.206 13.206 0 01-.273-2.594l-1.256-.838a1.75 1.75 0 01-.755-1.168l-.429-2.573a.75.75 0 111.48-.246l.429 2.572a.25.25 0 00.107.167l.536.357zm-.969 35.684a8 8 0 1111.314-11.314 8 8 0 01-11.314 11.314zm7.427-3.892l-.002.003a2.5 2.5 0 11.004-3.532.863.863 0 001.044.14.675.675 0 00.182-1.017 2.79 2.79 0 00-.17-.187 4 4 0 100 5.656c.052-.051.107-.112.167-.184a.676.676 0 00-.18-1.017.863.863 0 00-1.045.138zM9 1045a8 8 0 110-16 8 8 0 010 16zm-5.785 16.015h.07l5.16 2.1c.136.057.277.1.42.13.092.02.188.02.28 0 .143-.03.284-.073.42-.13l5.16-2.1a.21.21 0 01.26.11.11.11 0 010 .08v6.84c.02.102.02.208 0 .31a.3.3 0 01-.12.17.719.719 0 01-.27.15l-4.991 2c-.135.057-.276.1-.42.13a.658.658 0 01-.279 0 2.244 2.244 0 01-.42-.13l-4.99-2a.719.719 0 01-.27-.15.39.39 0 01-.21-.14.811.811 0 010-.31v-6.84a.21.21 0 01.2-.22zm5.93-4c.144.027.285.07.42.13l5.26 2.09a.2.2 0 01.11.26.22.22 0 01-.11.12l-5.26 2.1c-.135.06-.276.103-.42.13a.658.658 0 01-.28 0 1.865 1.865 0 01-.42-.13l-5.26-2.09a.2.2 0 01-.11-.26.22.22 0 01.11-.12l5.26-2.09c.135-.063.275-.11.42-.14a.658.658 0 01.28 0zM9.5 1040a.5.5 0 000-1H8v-1h1.5c1.75 0 3-1 3-2.5s-1.269-2.487-3-2.487h-2a.5.5 0 00-.5.5V1037l-.5-.006h-.006a.494.494 0 00-.494.494c0 .277.223.502.5.506l.5.006v1.013l-.5-.007h-.006a.494.494 0 00-.494.494c0 .277.223.503.5.506l.5.006v.488a.492.492 0 00.5.494c.277-.004.5-.23.5-.507V1040h1.5zm-1.5-6h1.5c1.5 0 2 .75 2 1.499 0 .749-.5 1.499-2 1.499H8V1034zm6.657-668.657a8 8 0 11-11.314 11.314 8 8 0 0111.314-11.314zm-8.132 8.132a3.5 3.5 0 104.95-4.95 3.5 3.5 0 00-4.95 4.95zm6.93-.076l1.488.799a6.76 6.76 0 00-.001-6.398l-1.486.8c.807 1.5.807 3.3 0 4.799zm-1.256-8.342a6.762 6.762 0 00-6.398.001l.8 1.486a5.061 5.061 0 014.797 0l.801-1.487zM3.06 367.8a6.76 6.76 0 00-.002 6.398l1.487-.8a5.058 5.058 0 010-4.797l-1.486-.801zm2.74 9.14a6.765 6.765 0 006.401.002l-.8-1.487c-1.5.807-3.3.807-4.8 0l-.8 1.485zM9 475c4.411 0 8 3.59 8 8 0 4.411-3.589 8-8 8-4.412 0-8-3.589-8-8 0-4.41 3.588-8 8-8zm6.823 8c0-3.004-1.953-5.56-4.656-6.468-.168.203-.292.399-.28.53.182 1.826 1.427.456 1.668.724.861.953-1.616 1.284-.755 3.007.415.829.894 1.06 1.593 1.07.699.011.956 1.204 1.011 1.699.059.496-.007 1.769-.26 2.319-.25.547.016 1.074.266 1.27a6.794 6.794 0 001.413-4.15zm-7.76-6.756a6.844 6.844 0 00-5.43 4.31c.503.053 1.708.067 1.858.492.155.427-.531.87-.531 1.76 0 .988 1.265.977 1.265 1.72 0 .742.273 1.61.273 1.857 0 .248 1.056 1.614 1.448 1.614.391 0 .084-1.527.105-1.932.01-.262.186-1.062.237-1.25.338-1.277 1.61-1.147 1.9-1.919.914-2.427-1.957-2.565-2.347-2.703-.39-.137-1.055-.142-1.306-.059-.252.082-.755-.34-.755-.698 0-.358.996-1.07 1.306-1.566.306-.495.551-.423 1.121-.939.262-.24.693-.368.856-.687zm-1.21 13.231a6.798 6.798 0 005.908-.787c-.3-.545-1.414-.62-1.979-.575-.67.055-1.43.487-1.855.58-.48.105-.825.252-1.25.271-.371.014-.413.294-.823.511z"/></g></svg>